<svg xmlns="http://www.w3.org/2000/svg" width="480" height="472"  xmlns:v="https://vecta.io/nano">
<circle cx="550" cy="562" r="550" transform="matrix(.426013 0 0 .41603 4.613574 2.007639)" fill-opacity=".75" fill="#6a8caa"/>
<path d="M89.664 95.713L46.822 343.99l42.842.55 42.328-249.525-42.328.698zm261.857 207.734l-6.522 41.364 82.373-.077 2.83-33.027-79.292-.802zM114.307 197.841l-7.193 41.288h213.648l6.899-40.187-213.354-1.101zM345.273 95.806L302.43 344.084l42.843.55L387.6 95.11l-42.327.696zm-127.804-.093L174.626 343.99l42.843.55 42.327-249.525-42.327.698z" fill="#fff"/>
</svg>